<svg xmlns="http://www.w3.org/2000/svg" fill="none" width="24" height="24" viewBox="0 0 32 32"><path fill="currentColor" fill-rule="evenodd" d="m26 18.414 2.293 2.293a1 1 0 0 0 1.414-1.414l-3.823-3.823a1.25 1.25 0 0 0-1.768 0l-3.823 3.823a1 1 0 0 0 1.414 1.414L24 18.414V26a1 1 0 1 0 2 0v-7.586Z" clip-rule="evenodd"/><path fill="currentColor" fill-rule="evenodd" d="M16.655 3.229a1.25 1.25 0 0 0-1.31 0L3.228 10.685c-1.073.66-.605 2.315.655 2.315H6v8H4a1 1 0 1 0 0 2h15.748a3.24 3.24 0 0 1-1.046-.702A3.235 3.235 0 0 1 17.907 21H14v-8h4v5.748a3.24 3.24 0 0 1 .702-1.046L20 16.404V13h4V13l.004-.001h1.992l.004.001V13h2.117c1.26 0 1.728-1.654.655-2.315L16.655 3.23ZM2 24.999h19.75v1c0 .35.055.686.157 1H2a1 1 0 1 1 0-2ZM28.25 25h1.764-1.764ZM26 26v-1h-2v1a1 1 0 1 0 2 0Zm-1-3h1v-7.414l-.116-.117a1.25 1.25 0 0 0-1.768 0l-.116.117V23h1Zm.003-12H6.533L16 5.174 25.467 11h-.464ZM8 13v8h4v-8H8Z" clip-rule="evenodd"/></svg>