<svg xmlns="http://www.w3.org/2000/svg" width="24" height="24" fill="currentColor" viewBox="0 0 24 24"><path fill-rule="evenodd" d="M12 2.25c-5.385 0-9.75 4.365-9.75 9.75s4.365 9.75 9.75 9.75 9.75-4.365 9.75-9.75S17.385 2.25 12 2.25ZM7.875 7.5a.375.375 0 0 0-.375.375v8.25c0 .207.168.375.375.375h.953a.375.375 0 0 0 .375-.375v-5.464a.04.04 0 0 1 .078-.014l2.049 5.564a.375.375 0 0 0 .352.245h.636a.375.375 0 0 0 .352-.245l2.049-5.542a.04.04 0 0 1 .078.014v5.442c0 .207.168.375.375.375h.953a.375.375 0 0 0 .375-.375v-8.25a.375.375 0 0 0-.375-.375h-1.53a.375.375 0 0 0-.352.242l-2.177 5.76a.07.07 0 0 1-.132 0l-2.177-5.76a.375.375 0 0 0-.351-.242H7.875Z" clip-rule="evenodd"/></svg>